<mxfile host="app.diagrams.net" modified="2021-06-02T11:12:26.051Z" agent="5.0 (Windows)" etag="Uks8Ok25z_4R5AuikBPf" version="14.7.3" type="github">
  <diagram id="8ErIZX99hBg3tY-EivI7" name="第 1 页">
    <mxGraphModel dx="2249" dy="763" grid="1" gridSize="10" guides="1" tooltips="1" connect="1" arrows="1" fold="1" page="1" pageScale="1" pageWidth="827" pageHeight="1169" math="0" shadow="0">
      <root>
        <mxCell id="0" />
        <mxCell id="1" parent="0" />
        <mxCell id="mEoHpBIgfC-0nK4Zhj2Q-4" value="修改状态及退款原因" style="edgeStyle=orthogonalEdgeStyle;rounded=0;orthogonalLoop=1;jettySize=auto;html=1;" edge="1" parent="1" source="mEoHpBIgfC-0nK4Zhj2Q-1" target="mEoHpBIgfC-0nK4Zhj2Q-3">
          <mxGeometry relative="1" as="geometry" />
        </mxCell>
        <mxCell id="mEoHpBIgfC-0nK4Zhj2Q-1" value="同意退款" style="rounded=1;whiteSpace=wrap;html=1;" vertex="1" parent="1">
          <mxGeometry x="300" y="40" width="120" height="60" as="geometry" />
        </mxCell>
        <mxCell id="mEoHpBIgfC-0nK4Zhj2Q-11" value="请求退款接口" style="edgeStyle=orthogonalEdgeStyle;rounded=0;orthogonalLoop=1;jettySize=auto;html=1;entryX=0.5;entryY=0;entryDx=0;entryDy=0;" edge="1" parent="1" source="mEoHpBIgfC-0nK4Zhj2Q-3" target="mEoHpBIgfC-0nK4Zhj2Q-6">
          <mxGeometry relative="1" as="geometry" />
        </mxCell>
        <mxCell id="mEoHpBIgfC-0nK4Zhj2Q-20" value="请求退款接口" style="edgeStyle=orthogonalEdgeStyle;rounded=0;orthogonalLoop=1;jettySize=auto;html=1;entryX=0.592;entryY=0.033;entryDx=0;entryDy=0;entryPerimeter=0;" edge="1" parent="1" source="mEoHpBIgfC-0nK4Zhj2Q-3" target="mEoHpBIgfC-0nK4Zhj2Q-19">
          <mxGeometry relative="1" as="geometry" />
        </mxCell>
        <mxCell id="mEoHpBIgfC-0nK4Zhj2Q-3" value="退款表" style="rounded=1;whiteSpace=wrap;html=1;" vertex="1" parent="1">
          <mxGeometry x="300" y="210" width="120" height="60" as="geometry" />
        </mxCell>
        <mxCell id="mEoHpBIgfC-0nK4Zhj2Q-13" value="请求成功" style="edgeStyle=orthogonalEdgeStyle;rounded=0;orthogonalLoop=1;jettySize=auto;html=1;" edge="1" parent="1" source="mEoHpBIgfC-0nK4Zhj2Q-6" target="mEoHpBIgfC-0nK4Zhj2Q-14">
          <mxGeometry relative="1" as="geometry">
            <mxPoint x="600" y="300" as="targetPoint" />
          </mxGeometry>
        </mxCell>
        <mxCell id="mEoHpBIgfC-0nK4Zhj2Q-25" style="edgeStyle=orthogonalEdgeStyle;rounded=0;orthogonalLoop=1;jettySize=auto;html=1;entryX=1;entryY=0.25;entryDx=0;entryDy=0;" edge="1" parent="1" source="mEoHpBIgfC-0nK4Zhj2Q-6" target="mEoHpBIgfC-0nK4Zhj2Q-17">
          <mxGeometry relative="1" as="geometry" />
        </mxCell>
        <mxCell id="mEoHpBIgfC-0nK4Zhj2Q-26" value="请求失败，则返回失败" style="edgeLabel;html=1;align=center;verticalAlign=middle;resizable=0;points=[];" vertex="1" connectable="0" parent="mEoHpBIgfC-0nK4Zhj2Q-25">
          <mxGeometry x="0.6288" y="-1" relative="1" as="geometry">
            <mxPoint as="offset" />
          </mxGeometry>
        </mxCell>
        <mxCell id="mEoHpBIgfC-0nK4Zhj2Q-6" value="支付宝" style="rounded=1;whiteSpace=wrap;html=1;" vertex="1" parent="1">
          <mxGeometry x="300" y="600" width="120" height="60" as="geometry" />
        </mxCell>
        <mxCell id="mEoHpBIgfC-0nK4Zhj2Q-16" value="如果是，则修改退款状态" style="edgeStyle=orthogonalEdgeStyle;rounded=0;orthogonalLoop=1;jettySize=auto;html=1;entryX=1;entryY=0.5;entryDx=0;entryDy=0;" edge="1" parent="1" source="mEoHpBIgfC-0nK4Zhj2Q-14" target="mEoHpBIgfC-0nK4Zhj2Q-3">
          <mxGeometry relative="1" as="geometry" />
        </mxCell>
        <mxCell id="mEoHpBIgfC-0nK4Zhj2Q-18" value="如果不是，不做操作返回成功" style="edgeStyle=orthogonalEdgeStyle;rounded=0;orthogonalLoop=1;jettySize=auto;html=1;exitX=0.5;exitY=0;exitDx=0;exitDy=0;entryX=0.5;entryY=1;entryDx=0;entryDy=0;" edge="1" parent="1" source="mEoHpBIgfC-0nK4Zhj2Q-14" target="mEoHpBIgfC-0nK4Zhj2Q-17">
          <mxGeometry relative="1" as="geometry" />
        </mxCell>
        <mxCell id="mEoHpBIgfC-0nK4Zhj2Q-14" value="&lt;span style=&quot;color: #262626 ; font-size: 14px&quot;&gt;返回fund_change=Y&lt;/span&gt;" style="rhombus;whiteSpace=wrap;html=1;" vertex="1" parent="1">
          <mxGeometry x="610" y="171.25" width="140" height="137.5" as="geometry" />
        </mxCell>
        <mxCell id="mEoHpBIgfC-0nK4Zhj2Q-17" value="返回" style="rounded=1;whiteSpace=wrap;html=1;" vertex="1" parent="1">
          <mxGeometry x="620" y="40" width="120" height="60" as="geometry" />
        </mxCell>
        <mxCell id="mEoHpBIgfC-0nK4Zhj2Q-24" value="请求成功，则返回成功，请求失败，则返回失败" style="edgeStyle=orthogonalEdgeStyle;rounded=0;orthogonalLoop=1;jettySize=auto;html=1;entryX=0.25;entryY=1;entryDx=0;entryDy=0;" edge="1" parent="1" source="mEoHpBIgfC-0nK4Zhj2Q-19" target="mEoHpBIgfC-0nK4Zhj2Q-23">
          <mxGeometry x="0.5" relative="1" as="geometry">
            <mxPoint as="offset" />
          </mxGeometry>
        </mxCell>
        <mxCell id="mEoHpBIgfC-0nK4Zhj2Q-19" value="微信" style="rounded=1;whiteSpace=wrap;html=1;" vertex="1" parent="1">
          <mxGeometry x="20" y="600" width="120" height="60" as="geometry" />
        </mxCell>
        <mxCell id="mEoHpBIgfC-0nK4Zhj2Q-23" value="返回" style="rounded=1;whiteSpace=wrap;html=1;" vertex="1" parent="1">
          <mxGeometry x="30" y="40" width="120" height="60" as="geometry" />
        </mxCell>
      </root>
    </mxGraphModel>
  </diagram>
</mxfile>
